<svg width="74" height="73" viewBox="0 0 74 73" fill="none" xmlns="http://www.w3.org/2000/svg">
<path fill-rule="evenodd" clip-rule="evenodd" d="M37 0C16.5575 0 0 16.7469 0 37.4232C0 53.983 10.5912 67.9699 25.2987 72.9285C27.1487 73.256 27.8425 72.1333 27.8425 71.1509C27.8425 70.2621 27.7963 67.315 27.7963 64.1808C18.5 65.9117 16.095 61.8887 15.355 59.7836C14.9388 58.7077 13.135 55.3864 11.5625 54.4976C10.2675 53.7959 8.4175 52.0651 11.5163 52.0183C14.43 51.9715 16.5112 54.7315 17.205 55.8542C20.535 61.5144 25.8538 59.9239 27.9813 58.9416C28.305 56.5091 29.2762 54.8718 30.34 53.9362C22.1075 53.0006 13.505 49.7729 13.505 35.4585C13.505 31.3887 14.9388 28.0206 17.2975 25.401C16.9275 24.4654 15.6325 20.6296 17.6675 15.4839C17.6675 15.4839 20.7662 14.5015 27.8425 19.3197C30.8025 18.4777 33.9475 18.0567 37.0925 18.0567C40.2375 18.0567 43.3825 18.4777 46.3425 19.3197C53.4188 14.4547 56.5175 15.4839 56.5175 15.4839C58.5525 20.6296 57.2575 24.4654 56.8875 25.401C59.2463 28.0206 60.68 31.342 60.68 35.4585C60.68 49.8197 52.0312 53.0006 43.7988 53.9362C45.14 55.1057 46.2963 57.3511 46.2963 60.8595C46.2963 65.8649 46.25 69.8879 46.25 71.1509C46.25 72.1333 46.9438 73.3027 48.7938 72.9285C63.4088 67.9699 74 53.9362 74 37.4232C74 16.7469 57.4425 0 37 0Z" fill="#F0F0F0"/>
</svg>
